# xmcd
#
# Track frame offsets:
#	150
#	16458
#	31991
#	42009
#	56133
#	72019
#	81964
#	97659
#	112691
#	125119
#	137723
#	154593
#	175425
#	193165
#
# Disc length: 2806 seconds
#
# Revision: 0
# Processed by: cddbd v1.5.2PL0 Copyright (c) Steve Scherf et al.
# Submitted via: EasyCDDAExtractor 16.0.9.1
#
DISCID=b50af40e
DTITLE=Arfik, Bahamas, Justyna Bechcicka, Piotr Bechcicki, Robert Gołaszewski&
DTITLE=Zespół dziecęcy Fasolinki, Radiowe Nutki, Zespół Starling, Witold Waliń
DTITLE=ski - MINI HITY Piosenki dla najmłodszych
DYEAR=1900
DGENRE=
TTITLE0=Ach śpij kochanie
TTITLE1=Czarny Alibaba
TTITLE2=Czarne Jagódki
TTITLE3=Na wojtusia z popielnika
TTITLE4=Ojciec Wirgiliusz
TTITLE5=Pośród lalek stu
TTITLE6=Czereśniowe kolczyki
TTITLE7=Stary niedźwiedź
TTITLE8=Kapelusz Uśmiechmistrza
TTITLE9=Gdzieś Ty bywał Czarny Baranie
TTITLE10=Mały książę
TTITLE11=Był sobie krół
TTITLE12=Puszek maluszek
TTITLE13=Pociąg białych króliczków
EXTD=
EXTT0=
EXTT1=
EXTT2=
EXTT3=
EXTT4=
EXTT5=
EXTT6=
EXTT7=
EXTT8=
EXTT9=
EXTT10=
EXTT11=
EXTT12=
EXTT13=
PLAYORDER=
